<?xml version="1.0" standalone="no"?>
<!DOCTYPE svg PUBLIC "-//W3C//DTD SVG 20010904//EN"
 "http://www.w3.org/TR/2001/REC-SVG-20010904/DTD/svg10.dtd">
<svg version="1.0" xmlns="http://www.w3.org/2000/svg"
 width="809.000000pt" height="809.000000pt" viewBox="0 0 809.000000 809.000000"
 preserveAspectRatio="xMidYMid meet">
<metadata>
Created by potrace 1.14, written by Peter Selinger 2001-2017
</metadata>
<g transform="translate(0.000000,809.000000) scale(0.100000,-0.100000)"
fill="#000000" stroke="none">
<path d="M2295 7011 c-22 -10 -56 -38 -76 -62 -20 -24 -51 -60 -68 -79 -57
-63 -169 -238 -222 -348 -97 -201 -149 -305 -159 -317 -5 -7 -8 -14 -5 -17 3
-3 -1 -11 -10 -18 -8 -7 -15 -18 -15 -25 0 -8 -3 -15 -7 -17 -10 -4 -35 -56
-103 -208 -48 -107 -189 -452 -195 -475 -1 -5 -5 -17 -8 -25 -8 -18 -76 -220
-105 -310 -49 -155 -118 -400 -128 -460 -3 -14 -7 -33 -10 -42 -3 -9 -7 -25
-9 -35 -2 -10 -25 -99 -50 -197 -40 -159 -51 -187 -92 -250 -26 -39 -49 -73
-53 -76 -3 -3 -34 -43 -70 -90 -97 -127 -177 -212 -360 -380 -57 -52 -112
-102 -121 -111 -9 -9 -39 -34 -66 -55 -26 -22 -64 -53 -83 -70 -40 -36 -210
-165 -225 -170 -30 -12 -44 -222 -18 -269 6 -11 24 -45 38 -75 47 -96 128
-183 260 -281 44 -32 85 -64 92 -69 7 -6 15 -10 17 -10 3 0 38 -21 77 -46 99
-63 355 -191 549 -274 81 -35 85 -37 82 -66 -3 -24 -30 -122 -93 -341 -14 -47
-17 -133 -6 -175 17 -70 130 -169 274 -242 52 -26 166 -60 233 -70 20 -3 65
-12 100 -21 51 -12 113 -14 290 -11 124 2 234 6 245 8 19 5 81 14 155 22 191
21 168 17 280 46 100 26 116 30 154 36 16 3 41 10 54 15 20 8 31 6 52 -9 66
-49 247 -121 420 -166 99 -26 135 -32 235 -41 76 -7 133 -13 165 -19 113 -21
340 -46 362 -41 13 2 46 7 73 10 93 10 140 16 190 25 54 11 98 16 215 25 41 4
95 11 120 17 25 5 54 11 65 14 126 25 350 110 441 166 l39 25 140 -34 c77 -19
156 -38 175 -43 19 -5 64 -12 100 -15 61 -5 158 -18 240 -31 19 -3 130 -8 245
-11 176 -4 225 -2 295 12 47 10 99 19 115 22 108 16 248 71 345 136 70 46 146
131 157 174 15 59 6 135 -28 246 -17 56 -37 127 -44 157 -7 30 -15 62 -18 70
-22 62 -20 68 38 95 31 14 58 25 60 25 14 0 403 191 466 229 15 9 52 31 83 49
233 138 383 289 447 448 26 65 30 86 28 151 -2 41 -7 77 -11 79 -4 3 -8 13 -8
23 0 12 -46 54 -123 114 -68 52 -130 101 -138 109 -8 7 -39 33 -69 58 -30 25
-60 49 -66 55 -6 5 -55 51 -109 100 -217 197 -384 387 -499 567 -31 49 -77
195 -106 333 -4 22 -15 65 -24 97 -8 31 -17 67 -20 80 -9 48 -19 88 -68 258
-130 450 -316 929 -485 1250 -104 197 -130 250 -168 335 -20 44 -43 87 -52 97
-9 10 -13 18 -9 18 16 0 -116 191 -204 295 -116 137 -183 154 -301 76 -74 -50
-395 -375 -480 -486 -13 -16 -26 -32 -29 -35 -20 -17 -101 -131 -115 -162 -9
-21 -21 -38 -25 -38 -4 0 -56 16 -115 35 -59 20 -124 38 -144 41 -20 3 -38 7
-41 9 -3 2 -50 11 -105 20 -55 10 -109 19 -120 21 -11 2 -49 7 -85 10 -35 3
-68 8 -73 11 -12 7 -415 6 -467 -2 -313 -45 -455 -73 -576 -116 -45 -16 -86
-29 -91 -29 -5 0 -18 19 -30 43 -70 143 -546 647 -664 702 -64 29 -91 31 -144
6z"/>
</g>
</svg>
